<mxfile host="app.diagrams.net" agent="Mozilla/5.0 (Windows NT 10.0; Win64; x64; rv:133.0) Gecko/20100101 Firefox/133.0" version="25.0.1">
  <diagram name="Page-1" id="FDy-CoA_kGg1gj3GW_Qd">
    <mxGraphModel dx="2074" dy="1142" grid="1" gridSize="10" guides="1" tooltips="1" connect="1" arrows="1" fold="1" page="1" pageScale="1" pageWidth="850" pageHeight="1100" math="0" shadow="0">
      <root>
        <mxCell id="0" />
        <mxCell id="1" parent="0" />
        <mxCell id="19vwjdOzNpY9OwTSfsN_-1" value="" style="rounded=1;whiteSpace=wrap;html=1;" vertex="1" parent="1">
          <mxGeometry x="505" y="10" width="320" height="780" as="geometry" />
        </mxCell>
        <mxCell id="9wRAZa3eu1D-8AbTDfj7-1" value="Player enters a fight" style="rounded=0;whiteSpace=wrap;html=1;" parent="1" vertex="1">
          <mxGeometry x="585" y="60" width="160" height="80" as="geometry" />
        </mxCell>
        <mxCell id="9wRAZa3eu1D-8AbTDfj7-3" value="The fight menu pops up" style="rounded=0;whiteSpace=wrap;html=1;" parent="1" vertex="1">
          <mxGeometry x="585" y="180" width="160" height="80" as="geometry" />
        </mxCell>
        <mxCell id="9wRAZa3eu1D-8AbTDfj7-5" value="The Player is given the options of Attack, Magic, Item and Flee" style="rounded=0;whiteSpace=wrap;html=1;" parent="1" vertex="1">
          <mxGeometry x="585" y="300" width="160" height="80" as="geometry" />
        </mxCell>
        <mxCell id="9wRAZa3eu1D-8AbTDfj7-26" value="The player chooses Item" style="rounded=0;whiteSpace=wrap;html=1;" parent="1" vertex="1">
          <mxGeometry x="585" y="420" width="160" height="80" as="geometry" />
        </mxCell>
        <mxCell id="9wRAZa3eu1D-8AbTDfj7-27" value="" style="endArrow=classic;html=1;rounded=0;" parent="1" edge="1">
          <mxGeometry width="50" height="50" relative="1" as="geometry">
            <mxPoint x="665" y="380" as="sourcePoint" />
            <mxPoint x="665" y="425" as="targetPoint" />
          </mxGeometry>
        </mxCell>
        <mxCell id="9wRAZa3eu1D-8AbTDfj7-29" value="The player uses an item" style="rounded=0;whiteSpace=wrap;html=1;" parent="1" vertex="1">
          <mxGeometry x="585" y="530" width="155" height="80" as="geometry" />
        </mxCell>
        <mxCell id="9wRAZa3eu1D-8AbTDfj7-33" value="The item has a corrosponding effect, Heal HP, Hurt an enemy etc" style="rounded=0;whiteSpace=wrap;html=1;" parent="1" vertex="1">
          <mxGeometry x="590" y="660" width="155" height="80" as="geometry" />
        </mxCell>
        <mxCell id="9wRAZa3eu1D-8AbTDfj7-36" value="" style="endArrow=classic;html=1;rounded=0;entryX=0.5;entryY=0;entryDx=0;entryDy=0;" parent="1" target="9wRAZa3eu1D-8AbTDfj7-29" edge="1">
          <mxGeometry width="50" height="50" relative="1" as="geometry">
            <mxPoint x="665" y="500" as="sourcePoint" />
            <mxPoint x="635" y="530" as="targetPoint" />
          </mxGeometry>
        </mxCell>
        <mxCell id="9wRAZa3eu1D-8AbTDfj7-59" value="" style="endArrow=classic;html=1;rounded=0;" parent="1" edge="1">
          <mxGeometry width="50" height="50" relative="1" as="geometry">
            <mxPoint x="664" y="140" as="sourcePoint" />
            <mxPoint x="664" y="180" as="targetPoint" />
          </mxGeometry>
        </mxCell>
        <mxCell id="9wRAZa3eu1D-8AbTDfj7-60" value="" style="endArrow=classic;html=1;rounded=0;" parent="1" edge="1">
          <mxGeometry width="50" height="50" relative="1" as="geometry">
            <mxPoint x="664" y="260" as="sourcePoint" />
            <mxPoint x="664" y="300" as="targetPoint" />
          </mxGeometry>
        </mxCell>
        <mxCell id="DzNvRiuFFLAUnhZ63FK0-1" value="" style="endArrow=classic;html=1;rounded=0;entryX=0.5;entryY=0;entryDx=0;entryDy=0;" parent="1" target="9wRAZa3eu1D-8AbTDfj7-33" edge="1">
          <mxGeometry width="50" height="50" relative="1" as="geometry">
            <mxPoint x="660" y="610" as="sourcePoint" />
            <mxPoint x="710" y="560" as="targetPoint" />
          </mxGeometry>
        </mxCell>
        <mxCell id="19vwjdOzNpY9OwTSfsN_-2" value="Player" style="shape=umlActor;verticalLabelPosition=bottom;verticalAlign=top;html=1;outlineConnect=0;" vertex="1" parent="1">
          <mxGeometry x="240" y="280" width="40" height="80" as="geometry" />
        </mxCell>
        <mxCell id="19vwjdOzNpY9OwTSfsN_-3" value="" style="endArrow=classic;html=1;rounded=0;entryX=0;entryY=0.5;entryDx=0;entryDy=0;" edge="1" parent="1" target="9wRAZa3eu1D-8AbTDfj7-1">
          <mxGeometry width="50" height="50" relative="1" as="geometry">
            <mxPoint x="280" y="320" as="sourcePoint" />
            <mxPoint x="330" y="270" as="targetPoint" />
          </mxGeometry>
        </mxCell>
      </root>
    </mxGraphModel>
  </diagram>
</mxfile>
